<svg xmlns="http://www.w3.org/2000/svg" width="19.953" height="14.632" viewBox="0 0 19.953 14.632">
  <defs>
    <style>
      .cls-1 {
        fill: #4895ff;
      }
    </style>
  </defs>
  <path id="路径_75" data-name="路径 75" class="cls-1" d="M154.747,237.19H139.866a.665.665,0,0,0-.439,1.165l7.44,6.542a.665.665,0,0,0,.878,0l7.44-6.542A.665.665,0,0,0,154.747,237.19Zm0,0-8.319,9.092-7.994-7.029a.665.665,0,0,0-1.1.5v10.739a1.33,1.33,0,0,0,1.33,1.33h17.292a1.33,1.33,0,0,0,1.33-1.33v-10.74a.665.665,0,0,0-1.1-.5l-7.994,7.029A1.33,1.33,0,0,1,146.428,246.282Zm0,0" transform="translate(-137.33 -237.19)"/>
</svg>
