<svg xmlns="http://www.w3.org/2000/svg" width="423.623" height="314.195" viewBox="0 0 423.623 314.195">
  <defs>
    <style>
      .cls-1 {
        fill: #f5f8fe;
      }

      .cls-2, .cls-5, .cls-6 {
        fill: none;
      }

      .cls-3 {
        fill: #4895ff;
      }

      .cls-4 {
        fill: #ff4da6;
      }

      .cls-5, .cls-6 {
        stroke: #4895ff;
      }

      .cls-5 {
        stroke-width: 3px;
      }

      .cls-6 {
        stroke-width: 2px;
      }

      .cls-7 {
        stroke: none;
      }
    </style>
  </defs>
  <g id="组_150" data-name="组 150" transform="translate(-459.92 -2064.629)">
    <g id="组_119" data-name="组 119" transform="translate(1256.564 2512.384)">
      <path id="路径_371" data-name="路径 371" class="cls-1" d="M-471.447-293.179H-554.9a14.4,14.4,0,0,0-12.472,7.2L-609.1-213.7a14.4,14.4,0,0,0,0,14.4l41.727,72.274a14.4,14.4,0,0,0,12.472,7.2h83.454a14.4,14.4,0,0,0,12.471-7.2l41.728-72.274a14.4,14.4,0,0,0,0-14.4l-41.728-72.273A14.4,14.4,0,0,0-471.447-293.179Z" transform="translate(-16.487 -13.73)"/>
      <path id="路径_372" data-name="路径 372" class="cls-1" d="M-363.667-341.958l-12.971,12.971a3.167,3.167,0,0,0-.819,3.058l4.748,17.719a3.166,3.166,0,0,0,2.238,2.239l17.72,4.747a3.164,3.164,0,0,0,3.057-.819l12.971-12.971a3.162,3.162,0,0,0,.819-3.057l-4.747-17.72a3.164,3.164,0,0,0-2.239-2.238l-17.719-4.748A3.166,3.166,0,0,0-363.667-341.958Z" transform="translate(-37.225 -9.315)"/>
      <g id="组_109" data-name="组 109" transform="translate(-796.644 -447.754)">
        <path id="路径_373" data-name="路径 373" class="cls-1" d="M-641.631-239.36l41.728-72.273a26.776,26.776,0,0,1,23.125-13.35h29.718l3.874-29.991a19.974,19.974,0,0,0-7.688-18.436l-92.006-70.244a19.974,19.974,0,0,0-19.811-2.559l-106.836,44.557a19.973,19.973,0,0,0-12.121,15.876l-14.831,114.8a19.976,19.976,0,0,0,7.689,18.436l92.006,70.245a19.975,19.975,0,0,0,19.81,2.559l43.8-18.268-8.458-14.649A26.783,26.783,0,0,1-641.631-239.36Z" transform="translate(796.644 447.754)"/>
      </g>
    </g>
    <g id="组_117" data-name="组 117" transform="translate(42.435 1779.818)">
      <path id="路径_376" data-name="路径 376" class="cls-2" d="M712.07,490.149a3.022,3.022,0,0,1-.937,4.169l-47.876,30.3,22.49,22.078,47.533-70.76-94.726,24.429,20.274,19.9L707.9,489.212A3.02,3.02,0,0,1,712.07,490.149Z" transform="translate(-1.229 -1.135)"/>
      <path id="路径_377" data-name="路径 377" class="cls-3" d="M739.622,469.444a4.219,4.219,0,0,0-4.541-1.663L632.759,494.169a4.262,4.262,0,0,0-1.919,7.166l24.419,23.972.253-3.033a3.611,3.611,0,0,1,1.64-2.856l.446-.282-20.274-19.9L732.051,474.8l-47.533,70.76-22.49-22.078-.584.37-.581,6.955,4.561,4.478a3.01,3.01,0,0,1,4.242,4.164l12.15,11.928A4.249,4.249,0,0,0,684.8,552.6a4.151,4.151,0,0,0,.439-.023,4.244,4.244,0,0,0,3.1-1.862l51.344-76.433A4.229,4.229,0,0,0,739.622,469.444ZM635.073,497.022l.005.006Zm48.246,50.326,0,0Zm2.73-.282h0Z" transform="translate(0 0)"/>
      <path id="路径_378" data-name="路径 378" class="cls-4" d="M668.853,544.714l-5.023,5.021.817-9.79-5.6-5.5-1.792,21.441-.01.251a3.615,3.615,0,0,0,6.176,2.558l9.708-9.707a2.94,2.94,0,0,0,.325-.4l-4.242-4.164A2.9,2.9,0,0,0,668.853,544.714Zm-9.711,9.71,0,0Z" transform="translate(-3.785 -9.136)"/>
      <path id="路径_379" data-name="路径 379" class="cls-4" d="M714.345,496.347a3.022,3.022,0,0,0-3.232-5.106L662.04,522.3l4.429,4.348Z" transform="translate(-4.441 -3.163)"/>
      <path id="路径_380" data-name="路径 380" class="cls-3" d="M675.021,546.2a3.013,3.013,0,0,0-3.917-.291l4.242,4.164A3.015,3.015,0,0,0,675.021,546.2Z" transform="translate(-5.681 -10.624)"/>
      <path id="路径_381" data-name="路径 381" class="cls-4" d="M665.514,532.013l.584-.37-4.429-4.348-.446.282a3.611,3.611,0,0,0-1.64,2.856l-.253,3.033,5.6,5.5Z" transform="translate(-4.071 -8.158)"/>
    </g>
    <g id="椭圆_23" data-name="椭圆 23" class="cls-5" transform="translate(809 2200)">
      <circle class="cls-7" cx="11.5" cy="11.5" r="11.5"/>
      <circle class="cls-2" cx="11.5" cy="11.5" r="10"/>
    </g>
    <g id="椭圆_24" data-name="椭圆 24" class="cls-6" transform="translate(660 2346)">
      <circle class="cls-7" cx="7.5" cy="7.5" r="7.5"/>
      <circle class="cls-2" cx="7.5" cy="7.5" r="6.5"/>
    </g>
  </g>
</svg>
