<svg xmlns="http://www.w3.org/2000/svg" width="423.623" height="314.195" viewBox="0 0 423.623 314.195">
  <defs>
    <style>
      .cls-1 {
        fill: #f5f8fe;
      }

      .cls-2 {
        fill: #4895ff;
      }

      .cls-3 {
        fill: #ff4da6;
      }

      .cls-4 {
        fill: none;
        stroke: #4895ff;
        stroke-linecap: round;
        stroke-miterlimit: 10;
        stroke-width: 2px;
      }
    </style>
  </defs>
  <g id="组_152" data-name="组 152" transform="translate(-455.92 -2637.629)">
    <g id="bg" transform="translate(1252.564 3085.384)">
      <path id="路径_371" data-name="路径 371" class="cls-1" d="M-471.447-293.179H-554.9a14.4,14.4,0,0,0-12.472,7.2L-609.1-213.7a14.4,14.4,0,0,0,0,14.4l41.727,72.274a14.4,14.4,0,0,0,12.472,7.2h83.454a14.4,14.4,0,0,0,12.471-7.2l41.728-72.274a14.4,14.4,0,0,0,0-14.4l-41.728-72.273A14.4,14.4,0,0,0-471.447-293.179Z" transform="translate(-16.487 -13.73)"/>
      <path id="路径_372" data-name="路径 372" class="cls-1" d="M-363.667-341.958l-12.971,12.971a3.167,3.167,0,0,0-.819,3.058l4.748,17.719a3.166,3.166,0,0,0,2.238,2.239l17.72,4.747a3.164,3.164,0,0,0,3.057-.819l12.971-12.971a3.162,3.162,0,0,0,.819-3.057l-4.747-17.72a3.164,3.164,0,0,0-2.239-2.238l-17.719-4.748A3.166,3.166,0,0,0-363.667-341.958Z" transform="translate(-37.225 -9.315)"/>
      <g id="组_109" data-name="组 109" transform="translate(-796.644 -447.754)">
        <path id="路径_373" data-name="路径 373" class="cls-1" d="M-641.631-239.36l41.728-72.273a26.776,26.776,0,0,1,23.125-13.35h29.718l3.874-29.991a19.974,19.974,0,0,0-7.688-18.436l-92.006-70.244a19.974,19.974,0,0,0-19.811-2.559l-106.836,44.557a19.973,19.973,0,0,0-12.121,15.876l-14.831,114.8a19.976,19.976,0,0,0,7.689,18.436l92.006,70.245a19.975,19.975,0,0,0,19.81,2.559l43.8-18.268-8.458-14.649A26.783,26.783,0,0,1-641.631-239.36Z" transform="translate(796.644 447.754)"/>
      </g>
    </g>
    <g id="技术部_icon" data-name="技术部 icon" transform="translate(575.75 2583.482)">
      <g id="组_102" data-name="组 102" transform="translate(119.207 280.005)">
        <g id="组_99" data-name="组 99" transform="translate(0 0.716)">
          <path id="路径_366" data-name="路径 366" class="cls-2" d="M140.779,324.035a2.658,2.658,0,0,1-1.883-.78L127.542,311.9a5.651,5.651,0,0,1,0-8L138.9,292.551a2.664,2.664,0,1,1,3.767,3.768l-11.354,11.353a.326.326,0,0,0,0,.461l11.355,11.355a2.664,2.664,0,0,1-1.883,4.547Z" transform="translate(-125.885 -291.771)"/>
        </g>
        <g id="组_100" data-name="组 100" transform="translate(39.864 0.716)">
          <path id="路径_367" data-name="路径 367" class="cls-2" d="M180.932,324.035a2.664,2.664,0,0,1-1.883-4.547L190.4,308.134a.328.328,0,0,0,0-.462l-11.354-11.353a2.664,2.664,0,1,1,3.766-3.768l11.354,11.355a5.659,5.659,0,0,1,0,8l-11.354,11.354A2.655,2.655,0,0,1,180.932,324.035Z" transform="translate(-178.269 -291.771)"/>
        </g>
        <g id="组_101" data-name="组 101" transform="translate(20.506 0)">
          <path id="路径_368" data-name="路径 368" class="cls-3" d="M155.495,325.781a2.665,2.665,0,0,1-2.494-3.6l11.08-29.623a2.664,2.664,0,0,1,4.99,1.866L157.99,324.05A2.664,2.664,0,0,1,155.495,325.781Z" transform="translate(-152.831 -290.83)"/>
        </g>
      </g>
      <g id="组_103" data-name="组 103" transform="translate(97.944 245.535)">
        <path id="路径_369" data-name="路径 369" class="cls-2" d="M189.689,328.431H106.148a8.213,8.213,0,0,1-8.2-8.2V253.738a8.213,8.213,0,0,1,8.2-8.2h83.541a8.213,8.213,0,0,1,8.2,8.2v66.491A8.213,8.213,0,0,1,189.689,328.431Zm-83.541-77.569a2.88,2.88,0,0,0-2.877,2.876v66.491a2.88,2.88,0,0,0,2.877,2.876h83.541a2.879,2.879,0,0,0,2.876-2.876V253.738a2.879,2.879,0,0,0-2.876-2.876Z" transform="translate(-97.944 -245.535)"/>
      </g>
      <g id="组_104" data-name="组 104" transform="translate(97.944 265.839)">
        <path id="路径_370" data-name="路径 370" class="cls-2" d="M194.57,277.543H100.608a2.664,2.664,0,1,1,0-5.327H194.57a2.664,2.664,0,1,1,0,5.327Z" transform="translate(-97.944 -272.216)"/>
      </g>
      <g id="组_105" data-name="组 105" transform="translate(109.905 255.936)">
        <circle id="椭圆_20" data-name="椭圆 20" class="cls-2" cx="2.631" cy="2.631" r="2.631"/>
      </g>
      <g id="组_106" data-name="组 106" transform="translate(120.032 255.936)">
        <circle id="椭圆_21" data-name="椭圆 21" class="cls-2" cx="2.631" cy="2.631" r="2.631"/>
      </g>
      <g id="组_107" data-name="组 107" transform="translate(130.159 255.936)">
        <circle id="椭圆_22" data-name="椭圆 22" class="cls-2" cx="2.631" cy="2.631" r="2.631"/>
      </g>
    </g>
    <path id="路径_374" data-name="路径 374" class="cls-4" d="M271.152,445.254l-9.679,16.766a1.839,1.839,0,0,0,1.593,2.759h19.359a1.839,1.839,0,0,0,1.593-2.759l-9.679-16.766A1.84,1.84,0,0,0,271.152,445.254Z" transform="translate(294.277 2680.14) rotate(-45)"/>
    <path id="路径_375" data-name="路径 375" class="cls-4" d="M266.344,444.809l-4.992,8.646a.949.949,0,0,0,.822,1.423h9.984a.949.949,0,0,0,.822-1.423l-4.992-8.646A.949.949,0,0,0,266.344,444.809Z" transform="translate(385.906 3376.987) rotate(-120)"/>
  </g>
</svg>
