<svg xmlns="http://www.w3.org/2000/svg" width="15.953" height="19.931" viewBox="0 0 15.953 19.931">
  <defs>
    <style>
      .cls-1 {
        fill: #4895ff;
      }
    </style>
  </defs>
  <path id="路径_76" data-name="路径 76" class="cls-1" d="M105.815,0a7.914,7.914,0,0,0-7.977,7.831c0,4.168,7.147,11.568,7.451,11.88a.732.732,0,0,0,.525.221h.016a.718.718,0,0,0,.53-.244l2.475-2.783c3.289-3.955,4.956-7.008,4.956-9.074A7.914,7.914,0,0,0,105.815,0Zm0,11.39a3.56,3.56,0,1,1,3.625-3.559A3.592,3.592,0,0,1,105.815,11.39Z" transform="translate(-97.838)"/>
</svg>
