<?xml version="1.0" encoding="utf-8"?>
<!-- Generator: Adobe Illustrator 21.0.0, SVG Export Plug-In . SVG Version: 6.00 Build 0)  -->
<svg version="1.1" id="Layer_1" xmlns="http://www.w3.org/2000/svg" xmlns:xlink="http://www.w3.org/1999/xlink" x="0px" y="0px"
	 viewBox="0 0 289 77" style="enable-background:new 0 0 289 77;" xml:space="preserve">
<style type="text/css">
	.st0{fill:#FFFFFF;stroke:#FFFFFF;stroke-width:4;stroke-miterlimit:10;}
</style>
<g id="Layer_1">
	
		<image style="overflow:visible;opacity:0.37;" width="293" height="80" xlink:href="74239886B77AE85C.png"  transform="matrix(1 0 0 1 1 3.3)">
	</image>
	<g>
		<g>
			<g id="图层_1_10_">
				
					<image style="overflow:visible;opacity:0.6;" width="279" height="69" xlink:href="74239886B77AE852.png"  transform="matrix(1 0 0 1 7 7.3)">
				</image>
				<g>
					<g>
						<g id="XMLID_125_">
							<g id="XMLID_127_">
								<path id="XMLID_134_" class="st0" d="M39.8,61.4H25.4c-4.1,0-7.5-1.3-10.3-4c-2.7-2.7-4.1-6.2-4.1-10.3V26.4
									c0-4.3,1.6-7.9,4.7-10.7c2.8-2.5,6-3.7,9.7-3.7h13.9v2.8H25.4c-2.9,0-5.5,1-7.8,3c-2.5,2.2-3.8,5.1-3.8,8.5V47
									c0,3.4,1.1,6.1,3.3,8.3s4.9,3.3,8.3,3.3H37V35.5h-7.3v-2.8h10.1C39.8,32.7,39.8,61.4,39.8,61.4z"/>
								<path id="XMLID_133_" class="st0" d="M76.1,45.9H55.4v3.8c0,3.7,0.7,6.2,2.1,7.5c1.1,1,3.2,1.5,6.1,1.5h12v2.7h-12
									c-3.7,0-6.4-0.7-8-2.2c-2-1.8-3-5-3-9.5V39.3c0-3.3,1.1-6,3.4-8.3c2.3-2.3,5.1-3.4,8.4-3.4c3.3,0,6,1.1,8.3,3.4
									c2.3,2.3,3.4,5.1,3.4,8.3V45.9z M73.3,43.1v-3.8c0-2.5-0.9-4.6-2.6-6.4s-3.8-2.6-6.3-2.6s-4.6,0.9-6.4,2.6
									c-1.7,1.8-2.6,3.9-2.6,6.4v3.8H73.3z"/>
								<path id="XMLID_132_" class="st0" d="M112.4,45.9H91.7v3.8c0,3.7,0.7,6.2,2.1,7.5c1.1,1,3.2,1.5,6.1,1.5h12v2.7h-12
									c-3.7,0-6.4-0.7-8-2.2c-2-1.8-3-5-3-9.5V39.3c0-3.3,1.1-6,3.4-8.3s5.1-3.4,8.4-3.4s6,1.1,8.3,3.4s3.4,5.1,3.4,8.3V45.9z
									 M109.6,43.1v-3.8c0-2.5-0.9-4.6-2.6-6.4s-3.8-2.6-6.3-2.6s-4.6,0.9-6.4,2.6c-1.7,1.8-2.6,3.9-2.6,6.4v3.8H109.6z"/>
								<path id="XMLID_131_" class="st0" d="M148.9,60.3l-2.6,1.1l-10.1-20.1l-8.3,4.1v15.5h-2.8V12.5h2.8v29.7l19.5-9.8l1.2,2.6
									l-9.9,4.9L148.9,60.3z"/>
								<path id="XMLID_130_" class="st0" d="M190.1,26.4c0,5.4-1.8,9.3-5.5,11.8c-2.5,1.7-5.7,2.6-9.5,2.6h-10.9v20.1h-2.8V12h13.7
									c3.8,0,6.9,0.9,9.5,2.6C188.3,17.1,190.1,21,190.1,26.4z M187.4,26.4c0-4.3-1.4-7.5-4.3-9.4c-2.1-1.5-4.8-2.2-8-2.2h-10.9
									v23.1h10.9c3.3,0,5.9-0.7,8-2.1C185.9,33.9,187.4,30.8,187.4,26.4z"/>
								<path id="XMLID_129_" class="st0" d="M205.7,16.8h-2.8v-4.3h2.8V16.8z M205.7,60.9h-2.8V28.1h2.8V60.9z"/>
								<path id="XMLID_128_" class="st0" d="M242,45.9h-20.7v3.8c0,3.7,0.7,6.2,2.1,7.5c1.1,1,3.2,1.5,6.1,1.5h12v2.7h-12
									c-3.7,0-6.4-0.7-8-2.2c-2-1.8-3-5-3-9.5V39.3c0-3.3,1.1-6,3.4-8.3s5.1-3.4,8.4-3.4s6,1.1,8.3,3.4s3.4,5.1,3.4,8.3V45.9
									L242,45.9z M239.2,43.1v-3.8c0-2.5-0.9-4.6-2.6-6.4s-3.8-2.6-6.3-2.6s-4.6,0.9-6.4,2.6s-2.6,3.9-2.6,6.4v3.8H239.2z"/>
							</g>
							<rect id="XMLID_126_" x="247" y="66.2" class="st0" width="33" height="4.1"/>
						</g>
					</g>
				</g>
			</g>
		</g>
	</g>
</g>
</svg>
