<?xml version="1.0" standalone="no"?>
<!DOCTYPE svg PUBLIC "-//W3C//DTD SVG 20010904//EN"
 "http://www.w3.org/TR/2001/REC-SVG-20010904/DTD/svg10.dtd">
<svg version="1.0" xmlns="http://www.w3.org/2000/svg"
 width="108.000000pt" height="108.000000pt" viewBox="0 0 108.000000 108.000000"
 preserveAspectRatio="xMidYMid meet">

<g transform="translate(0.000000,108.000000) scale(0.100000,-0.100000)"
fill="#000000" stroke="none">
<path d="M74 1011 c-2 -2 -4 -42 -4 -88 l0 -83 90 0 91 0 -3 86 -3 86 -83 1
c-46 1 -86 0 -88 -2z m146 -83 l0 -63 -60 0 -60 0 0 63 0 62 60 0 60 0 0 -62z"/>
<path d="M127 964 c-4 -4 -7 -22 -7 -41 0 -32 1 -33 41 -33 l40 0 -3 38 c-3
33 -6 37 -33 40 -17 2 -34 0 -38 -4z"/>
<path d="M273 1003 c-8 -21 2 -36 25 -40 18 -2 22 2 22 26 0 24 -4 29 -21 28
-12 -1 -23 -7 -26 -14z"/>
<path d="M350 990 c0 -17 5 -30 10 -30 6 0 10 7 10 15 0 8 7 15 16 15 23 0 11
23 -14 27 -19 2 -22 -2 -22 -27z"/>
<path d="M477 1014 c-12 -12 -8 -24 7 -24 8 0 17 -6 20 -12 5 -10 7 -10 12 0
3 6 12 12 20 12 16 0 19 16 5 25 -6 3 -14 -3 -20 -12 -9 -17 -10 -17 -23 0 -8
10 -17 15 -21 11z"/>
<path d="M600 1005 c0 -8 -7 -15 -15 -15 -9 0 -15 -9 -15 -25 0 -27 -15 -34
-24 -10 -3 8 -10 15 -16 15 -5 0 -10 -7 -10 -15 0 -8 7 -15 15 -15 8 0 15 -7
15 -15 0 -8 5 -15 10 -15 6 0 10 7 10 15 0 20 46 20 54 -1 3 -8 10 -12 16 -9
15 9 12 25 -5 25 -11 0 -15 11 -15 40 0 22 -4 40 -10 40 -5 0 -10 -7 -10 -15z"/>
<path d="M700 1003 c0 -7 -11 -13 -25 -13 -16 0 -25 -6 -25 -15 0 -18 42 -15
48 3 2 7 15 12 28 12 19 0 24 -5 24 -25 0 -20 -5 -25 -24 -25 -13 0 -26 -7
-30 -15 -3 -8 -15 -15 -26 -15 -11 0 -20 -4 -20 -10 0 -17 67 -12 74 6 3 8 10
12 16 9 15 -9 12 -25 -5 -25 -9 0 -15 -9 -15 -25 0 -16 6 -25 15 -25 8 0 15 7
15 15 0 8 5 15 10 15 6 0 10 -7 10 -15 0 -8 7 -15 15 -15 12 0 15 13 15 59 0
43 -4 60 -15 65 -8 3 -15 16 -15 30 0 21 -4 24 -35 23 -22 -1 -35 -6 -35 -14z"/>
<path d="M824 1011 c-2 -2 -4 -42 -4 -88 l0 -83 90 0 91 0 -3 86 -3 86 -83 1
c-46 1 -86 0 -88 -2z m146 -83 l0 -63 -57 1 -58 2 -3 61 -3 61 61 0 60 0 0
-62z"/>
<path d="M877 964 c-4 -4 -7 -22 -7 -41 0 -32 1 -33 41 -33 l40 0 -3 38 c-3
33 -6 37 -33 40 -17 2 -34 0 -38 -4z"/>
<path d="M420 965 c0 -20 -5 -25 -24 -25 -13 0 -26 -7 -30 -15 -3 -9 -18 -15
-36 -15 -20 0 -30 5 -30 15 0 8 -7 15 -15 15 -11 0 -15 -12 -15 -50 0 -38 4
-50 15 -50 8 0 15 7 15 15 0 25 18 17 22 -10 4 -31 21 -38 26 -11 2 10 -3 23
-12 28 -18 10 -21 28 -5 28 14 0 39 -25 39 -39 0 -6 7 -11 15 -11 9 0 15 9 15
25 0 16 -6 25 -15 25 -17 0 -20 16 -5 25 6 3 13 -1 16 -9 9 -25 24 -19 24 9 0
16 6 25 15 25 9 0 15 9 15 25 0 16 -6 25 -15 25 -9 0 -15 -9 -15 -25z"/>
<path d="M477 963 c-12 -11 -8 -23 8 -23 8 0 15 7 15 15 0 16 -12 20 -23 8z"/>
<path d="M473 903 c-3 -7 -16 -13 -29 -13 -18 0 -24 -5 -24 -23 0 -12 -11 -31
-25 -41 -32 -24 -32 -36 -1 -36 13 0 26 -6 28 -12 3 -7 13 -13 23 -13 12 0 21
-9 25 -25 4 -18 13 -25 28 -24 12 0 22 -5 22 -13 0 -7 -4 -13 -10 -13 -5 0
-10 -4 -10 -8 0 -4 16 -8 35 -8 19 0 35 4 35 8 0 4 7 8 15 8 17 0 20 16 5 25
-6 3 -13 -1 -16 -9 -11 -28 -24 -17 -24 18 0 28 -4 35 -25 40 -14 4 -30 4 -36
1 -5 -4 -12 1 -15 9 -3 9 -17 16 -30 16 -19 0 -24 5 -24 25 0 16 6 25 15 25 8
0 15 7 15 15 0 8 5 15 10 15 6 0 10 -7 10 -15 0 -8 -4 -15 -10 -15 -5 0 -10
-7 -10 -16 0 -8 5 -12 10 -9 6 3 10 -1 10 -9 0 -12 10 -16 36 -16 35 0 64 -18
64 -39 0 -6 7 -11 15 -11 8 0 15 7 15 16 0 8 5 12 10 9 6 -3 10 1 10 9 0 12
-10 16 -35 16 -34 0 -35 1 -35 40 0 44 17 55 22 15 2 -14 8 -26 13 -26 6 0 11
12 13 26 4 33 20 32 24 -2 3 -25 7 -28 38 -29 30 0 35 -3 35 -25 0 -19 -4 -23
-22 -21 -16 2 -23 -2 -23 -12 0 -10 9 -16 25 -16 23 0 25 -3 25 -50 0 -38 -4
-50 -15 -50 -8 0 -15 7 -15 15 0 8 -4 15 -9 15 -11 0 -3 -65 10 -92 6 -10 16
-14 29 -11 14 4 20 0 20 -11 0 -9 7 -16 15 -16 9 0 15 9 15 25 0 20 -5 25 -25
25 -15 0 -25 6 -25 15 0 9 8 14 22 12 27 -3 38 32 14 45 -10 6 -16 22 -16 43
0 19 -4 35 -10 35 -5 0 -10 7 -10 16 0 11 6 15 19 11 11 -2 25 3 35 14 18 22
21 39 6 39 -5 0 -10 -7 -10 -15 0 -8 -7 -15 -15 -15 -8 0 -15 7 -15 16 0 8 -4
12 -10 9 -6 -3 -10 5 -10 19 0 31 -16 42 -28 20 -8 -15 -15 -12 -51 26 -33 35
-42 40 -47 26 -7 -19 -54 -22 -54 -3 0 7 -10 13 -21 13 -12 0 -23 -6 -26 -13z
m25 -24 c-2 -6 -8 -10 -13 -10 -5 0 -11 4 -13 10 -2 6 4 11 13 11 9 0 15 -5
13 -11z m100 0 c-2 -6 -8 -10 -13 -10 -5 0 -11 4 -13 10 -2 6 4 11 13 11 9 0
15 -5 13 -11z m-78 -24 c0 -8 -4 -15 -10 -15 -5 0 -10 7 -10 15 0 8 5 15 10
15 6 0 10 -7 10 -15z"/>
<path d="M150 805 c0 -8 -7 -15 -15 -15 -8 0 -15 -2 -15 -5 0 -7 38 -45 45
-45 11 0 4 29 -7 33 -7 2 -9 8 -5 13 5 5 13 1 18 -9 6 -9 14 -15 20 -12 14 9
11 25 -6 25 -8 0 -15 7 -15 15 0 8 -4 15 -10 15 -5 0 -10 -7 -10 -15z"/>
<path d="M226 813 c-11 -11 -6 -23 9 -23 8 0 15 4 15 9 0 13 -16 22 -24 14z"/>
<path d="M853 803 c-3 -7 -14 -13 -25 -13 -31 0 -78 -54 -78 -90 0 -40 20 -60
61 -60 31 0 58 22 59 48 0 18 37 52 56 52 9 0 23 8 30 18 12 15 13 12 14 -25
0 -24 -5 -44 -12 -47 -10 -5 -10 -7 0 -12 12 -6 18 -34 7 -34 -3 0 -17 12 -31
27 -23 25 -26 26 -35 10 -6 -10 -14 -15 -20 -12 -5 4 -9 1 -9 -5 0 -20 -36
-51 -53 -44 -12 4 -17 1 -17 -10 0 -9 -7 -16 -15 -16 -9 0 -15 -9 -15 -25 0
-29 17 -33 36 -7 13 16 13 16 14 0 0 -10 -4 -18 -10 -18 -5 0 -10 -7 -10 -16
0 -8 5 -12 10 -9 6 3 10 -1 10 -9 0 -12 10 -16 40 -16 36 0 40 3 40 25 0 20
-5 25 -25 25 -22 0 -25 4 -25 35 0 24 5 35 15 35 8 0 18 0 22 1 4 0 9 -4 11
-10 2 -6 -3 -11 -12 -11 -23 0 -20 -8 19 -47 28 -28 36 -32 41 -19 8 21 24 21
24 0 0 -32 25 -6 28 29 3 37 -13 52 -24 22 -4 -8 -10 -12 -15 -9 -12 7 -11 44
1 44 6 0 10 7 10 15 0 8 7 15 15 15 13 0 15 14 13 88 -3 79 -5 87 -23 87 -14
0 -21 -8 -23 -26 -3 -25 -6 -27 -50 -24 -55 4 -71 25 -18 25 22 0 36 5 36 13
0 7 -13 12 -31 12 -17 0 -34 -6 -36 -12z m-33 -48 c0 -9 10 -15 26 -15 16 0
24 -5 21 -12 -2 -7 -12 -13 -23 -13 -13 0 -20 -8 -22 -26 -3 -22 -7 -25 -28
-21 -26 5 -33 22 -9 22 8 0 15 4 15 9 0 5 -7 11 -15 15 -8 3 -15 10 -15 16 0
5 7 10 15 10 8 0 15 7 15 15 0 8 5 15 10 15 6 0 10 -7 10 -15z m100 -100 c0
-8 7 -15 16 -15 23 0 11 -24 -14 -28 -19 -3 -22 1 -22 27 0 17 5 31 10 31 6 0
10 -7 10 -15z"/>
<path d="M320 774 c0 -10 -6 -13 -18 -10 -13 5 -26 -3 -42 -24 -24 -32 -60
-41 -60 -15 0 8 -6 15 -13 15 -15 0 -41 -39 -32 -48 4 -4 11 1 16 11 6 9 14
15 20 12 14 -9 11 -25 -6 -25 -8 0 -15 -7 -15 -15 0 -8 -4 -15 -10 -15 -5 0
-10 7 -10 15 0 8 -7 15 -15 15 -10 0 -15 -10 -15 -34 0 -19 -4 -38 -10 -41 -5
-3 -10 -14 -10 -25 0 -10 -7 -20 -15 -24 -8 -3 -15 -10 -15 -16 0 -5 7 -10 15
-10 8 0 15 -4 15 -9 0 -5 -7 -11 -15 -15 -15 -6 -20 -37 -8 -50 4 -3 19 8 34
26 24 27 29 29 35 15 3 -9 17 -17 30 -17 19 0 24 -5 24 -25 0 -16 -6 -25 -15
-25 -8 0 -15 7 -15 15 0 8 -4 15 -10 15 -5 0 -10 -20 -10 -45 0 -40 -5 -50
-40 -84 -22 -21 -40 -41 -40 -44 0 -17 43 -4 64 18 13 14 33 25 45 25 16 0 21
6 21 25 0 16 -6 25 -16 25 -22 0 -12 23 11 26 11 2 21 8 23 13 2 6 10 11 18
11 19 0 18 16 -1 24 -19 7 -20 26 -2 26 8 0 20 -11 27 -25 7 -14 17 -25 22
-25 13 0 38 26 38 39 0 17 -17 13 -24 -5 -3 -8 -10 -12 -16 -9 -15 9 -12 25 5
25 8 0 15 7 15 16 0 8 5 12 10 9 6 -3 10 1 10 9 0 9 7 16 15 16 8 0 15 -7 15
-15 0 -8 5 -15 10 -15 6 0 10 18 10 40 0 29 4 40 15 40 10 0 15 10 15 34 0 35
13 46 51 46 10 0 19 5 19 10 0 6 -11 10 -25 10 -27 0 -34 15 -10 24 8 3 15 10
15 16 0 16 -27 12 -34 -6 -3 -9 -13 -14 -21 -10 -8 3 -19 -3 -25 -12 -9 -16
-11 -16 -20 0 -6 10 -18 14 -30 11 -14 -4 -20 0 -20 11 0 10 9 16 25 16 20 0
25 5 25 25 0 16 -6 25 -15 25 -8 0 -15 -7 -15 -16z m30 -97 c0 -8 -19 -12 -62
-12 -40 0 -63 -4 -65 -12 -3 -9 8 -13 36 -13 30 0 41 -4 41 -15 0 -8 5 -15 10
-15 6 0 10 7 10 15 0 8 7 15 15 15 8 0 15 5 15 10 0 6 5 10 10 10 16 0 12 -58
-6 -79 -10 -11 -24 -16 -35 -14 -13 4 -19 0 -19 -11 0 -9 -7 -16 -15 -16 -8 0
-15 5 -15 10 0 6 7 13 15 16 15 6 20 35 9 47 -7 6 -74 -55 -74 -67 0 -3 7 -6
15 -6 20 0 19 -6 -5 -30 l-20 -20 -45 44 c-43 42 -55 69 -37 80 12 7 42 -31
42 -54 0 -11 7 -20 15 -20 9 0 15 9 15 25 0 20 5 25 25 25 30 0 31 4 4 31 -20
20 -23 20 -31 5 -5 -9 -13 -14 -19 -11 -14 9 -11 25 6 25 9 0 15 9 15 25 0 24
2 25 75 25 54 0 75 -4 75 -13z m48 2 c-2 -6 -8 -10 -13 -10 -5 0 -11 4 -13 10
-2 6 4 11 13 11 9 0 15 -5 13 -11z"/>
<path d="M74 756 c-10 -26 1 -139 14 -144 8 -2 12 8 12 34 0 26 7 43 25 60 27
25 31 34 14 34 -6 0 -17 7 -25 15 -19 19 -33 19 -40 1z"/>
<path d="M226 763 c-11 -11 -6 -23 9 -23 8 0 15 4 15 9 0 13 -16 22 -24 14z"/>
<path d="M376 763 c-11 -11 -6 -23 9 -23 8 0 15 4 15 9 0 13 -16 22 -24 14z"/>
<path d="M620 715 c0 -20 5 -25 25 -25 16 0 25 6 25 16 0 8 -4 12 -10 9 -5 -3
-10 1 -10 9 0 9 -7 16 -15 16 -9 0 -15 -9 -15 -25z"/>
<path d="M451 563 c-19 -23 -20 -29 -8 -47 16 -23 84 -34 114 -18 12 7 4 9
-28 5 -30 -3 -50 0 -64 11 -19 14 -19 16 -3 46 21 37 16 39 -11 3z"/>
<path d="M609 533 c-13 -16 -12 -17 4 -4 9 7 17 15 17 17 0 8 -8 3 -21 -13z"/>
<path d="M660 524 c0 -9 7 -14 17 -12 25 5 28 28 4 28 -12 0 -21 -6 -21 -16z"/>
<path d="M367 500 c-9 -11 -17 -25 -17 -30 0 -14 40 -6 51 11 24 38 -4 54 -34
19z"/>
<path d="M724 511 c-13 -13 1 -21 36 -21 40 0 53 -13 25 -24 -8 -3 -15 -14
-15 -24 0 -10 -5 -23 -11 -29 -8 -8 -6 -17 7 -31 10 -12 21 -19 26 -16 14 9 9
24 -8 24 -22 0 -12 23 11 26 11 2 21 8 23 13 6 17 52 13 52 -4 0 -9 -9 -15
-25 -15 -18 0 -25 -5 -25 -20 0 -13 7 -20 20 -20 11 0 23 -7 26 -15 7 -17 34
-21 34 -5 0 6 -7 13 -15 16 -8 4 -15 10 -15 15 0 5 7 9 15 9 9 0 15 9 15 25 0
20 5 25 25 25 20 0 25 5 25 25 0 14 5 25 10 25 20 0 9 -43 -16 -65 -15 -13
-24 -30 -22 -41 4 -23 22 -21 26 3 2 10 8 23 14 28 6 6 8 -10 6 -45 l-3 -55
-43 -3 c-31 -2 -44 1 -48 12 -3 9 -17 16 -29 16 -13 0 -26 6 -29 13 -5 10 -7
10 -12 0 -3 -7 -12 -13 -20 -13 -9 0 -14 -12 -14 -36 0 -35 -18 -64 -39 -64
-6 0 -11 -7 -11 -15 0 -11 7 -14 25 -11 17 3 25 0 25 -10 0 -8 7 -14 15 -14 8
0 15 -7 15 -15 0 -8 5 -15 10 -15 6 0 10 7 10 15 0 9 9 15 24 15 21 0 25 -5
28 -37 2 -30 7 -37 26 -38 12 -1 22 4 22 12 0 7 -4 13 -10 13 -15 0 -12 47 3
53 10 4 10 7 0 18 -7 7 -13 28 -13 46 0 29 3 33 25 33 27 0 34 -15 10 -24 -8
-3 -15 -17 -15 -31 0 -27 17 -34 26 -10 4 8 17 15 30 15 19 0 24 5 24 24 0 13
-8 27 -17 31 -17 6 -17 7 0 16 14 8 17 24 17 94 0 67 -3 85 -14 85 -8 0 -17 6
-20 13 -5 10 -7 10 -12 0 -3 -7 -12 -13 -20 -13 -8 0 -14 -6 -14 -12 0 -9 -15
-13 -45 -12 -34 1 -50 7 -65 24 -18 21 -73 34 -86 21z m146 -262 c0 -39 -1
-40 -32 -37 -30 3 -33 6 -36 41 -3 36 -3 37 32 37 35 0 36 -1 36 -41z"/>
<path d="M826 263 c-11 -11 -6 -23 9 -23 8 0 15 4 15 9 0 13 -16 22 -24 14z"/>
<path d="M670 465 c0 -16 6 -25 16 -25 18 0 14 -24 -4 -26 -7 -1 -16 -2 -22
-3 -5 0 -10 -10 -10 -21 0 -11 5 -20 10 -20 6 0 10 -14 10 -31 0 -26 -3 -31
-20 -26 -12 3 -24 -1 -30 -11 -9 -16 -11 -16 -21 1 -5 9 -14 15 -20 12 -14 -9
-11 -25 6 -25 8 0 15 -7 15 -15 0 -19 38 -14 51 6 8 12 11 11 20 -4 13 -23 29
-13 29 18 0 20 5 24 23 22 19 -2 22 3 25 36 2 28 0 37 -12 37 -10 0 -16 -9
-16 -25 0 -14 -4 -25 -10 -25 -20 0 -10 43 16 67 30 28 28 59 -4 56 -14 -2
-22 3 -22 12 0 8 -7 15 -15 15 -9 0 -15 -9 -15 -25z"/>
<path d="M238 419 c-21 -23 -22 -29 -5 -29 7 0 18 -9 25 -21 12 -18 10 -23
-12 -43 -29 -25 -33 -36 -11 -36 8 0 15 4 15 9 0 18 38 18 54 0 18 -21 22 -59
6 -59 -5 0 -10 -11 -10 -25 0 -16 -6 -25 -15 -25 -17 0 -20 -16 -5 -25 6 -3
13 1 16 9 6 14 54 24 54 11 0 -3 -11 -16 -25 -29 -14 -13 -25 -33 -25 -45 0
-17 6 -21 35 -21 31 0 35 3 35 25 0 23 4 25 41 25 28 0 39 4 36 13 -2 6 -19
12 -38 13 -24 0 -35 5 -37 18 -5 25 15 45 24 23 3 -9 10 -17 15 -17 14 0 11
28 -3 34 -10 5 -10 7 0 12 14 7 16 54 2 54 -5 0 -10 11 -10 25 0 28 15 34 24
9 9 -24 26 -6 26 27 0 44 39 78 54 47 5 -10 7 -10 12 0 7 14 34 16 34 2 0 -5
5 -10 10 -10 11 0 14 29 3 31 -45 8 -110 6 -120 -3 -9 -7 -14 -6 -19 6 -4 10
-18 16 -40 16 -33 0 -34 -1 -34 -41 0 -24 4 -38 10 -34 6 4 10 -7 10 -24 0
-17 -4 -31 -10 -31 -5 0 -10 7 -10 15 0 9 -9 15 -25 15 -14 0 -25 5 -25 10 0
6 5 10 10 10 18 0 10 20 -20 50 -17 17 -32 30 -33 29 -1 0 -10 -9 -19 -20z
m162 -20 c0 -5 -7 -9 -15 -9 -15 0 -20 12 -9 23 8 8 24 -1 24 -14z m-102 -20
c-2 -6 -8 -10 -13 -10 -5 0 -11 4 -13 10 -2 6 4 11 13 11 9 0 15 -5 13 -11z
m82 -109 c26 -26 25 -30 -4 -30 -13 0 -27 -7 -30 -16 -3 -8 -10 -12 -16 -9
-15 9 -12 25 5 25 9 0 15 9 15 25 0 30 4 31 30 5z"/>
<path d="M631 431 c-8 -6 -9 -11 -3 -15 6 -3 14 -1 17 5 9 14 2 20 -14 10z"/>
<path d="M75 411 c-12 -11 -3 -21 20 -21 15 0 25 6 25 14 0 13 -34 19 -45 7z"/>
<path d="M520 377 c0 -8 -10 -13 -21 -13 -12 1 -24 -5 -26 -11 -3 -9 8 -13 36
-13 30 0 41 -4 41 -15 0 -8 5 -15 10 -15 6 0 10 7 10 15 0 8 7 15 15 15 8 0
15 7 15 15 0 8 5 15 10 15 6 0 10 -7 10 -15 0 -8 7 -15 15 -15 21 0 19 12 -6
34 -17 14 -23 15 -29 5 -12 -19 -50 -22 -50 -4 0 8 -7 15 -15 15 -8 0 -15 -6
-15 -13z"/>
<path d="M76 363 c-11 -11 -6 -23 9 -23 8 0 15 4 15 9 0 13 -16 22 -24 14z"/>
<path d="M227 363 c-12 -11 -8 -23 8 -23 8 0 15 7 15 15 0 16 -12 20 -23 8z"/>
<path d="M168 313 c-27 -7 -21 -23 7 -23 14 0 25 4 25 9 0 13 -12 18 -32 14z"/>
<path d="M500 305 c0 -8 -7 -15 -15 -15 -8 0 -15 -7 -15 -16 0 -8 -4 -12 -10
-9 -6 4 -10 -10 -10 -34 0 -37 2 -41 25 -41 14 0 25 -4 25 -10 0 -5 8 -10 18
-10 22 0 52 -34 52 -60 0 -11 7 -20 15 -20 8 0 15 7 15 15 0 9 6 15 13 14 26
-3 37 2 37 17 0 23 -61 79 -82 76 -11 -2 -18 3 -18 12 0 9 5 16 10 16 6 0 10
7 10 15 0 8 -4 15 -10 15 -5 0 -10 -7 -10 -15 0 -8 -7 -15 -15 -15 -8 0 -15
-7 -15 -15 0 -8 -4 -15 -10 -15 -5 0 -10 18 -10 40 0 22 5 40 10 40 6 0 10 7
10 15 0 8 -4 15 -10 15 -5 0 -10 -7 -10 -15z m98 -126 c-2 -6 -7 -10 -11 -10
-4 1 -14 1 -22 1 -8 0 -15 5 -15 10 0 6 12 10 26 10 14 0 24 -5 22 -11z m22
-24 c0 -8 -4 -15 -10 -15 -5 0 -10 7 -10 15 0 8 5 15 10 15 6 0 10 -7 10 -15z"/>
<path d="M272 279 c2 -6 8 -10 13 -10 5 0 11 4 13 10 2 6 -4 11 -13 11 -9 0
-15 -5 -13 -11z"/>
<path d="M722 278 c6 -18 28 -21 28 -4 0 9 -7 16 -16 16 -9 0 -14 -5 -12 -12z"/>
<path d="M77 264 c-4 -4 -7 -45 -7 -91 l0 -83 90 0 91 0 -3 88 -3 87 -80 3
c-45 1 -84 0 -88 -4z m143 -89 l0 -65 -60 0 -60 0 0 65 0 65 60 0 60 0 0 -65z"/>
<path d="M124 211 c-2 -2 -4 -19 -4 -38 0 -32 1 -33 41 -33 l40 0 -3 37 c-3
34 -5 36 -36 37 -19 1 -36 -1 -38 -3z"/>
<path d="M600 224 c0 -10 7 -14 22 -12 32 5 35 28 4 28 -17 0 -26 -5 -26 -16z"/>
<path d="M670 215 c0 -14 -4 -25 -10 -25 -5 0 -10 -5 -10 -11 0 -14 26 -39 40
-39 20 0 4 -25 -18 -28 -35 -5 -25 -22 13 -22 l35 0 0 60 c0 33 -4 60 -10 60
-5 0 -10 7 -10 15 0 8 -7 15 -15 15 -9 0 -15 -9 -15 -25z m28 -36 c-2 -6 -8
-10 -13 -10 -5 0 -11 4 -13 10 -2 6 4 11 13 11 9 0 15 -5 13 -11z"/>
<path d="M954 205 c-4 -8 -12 -15 -20 -15 -8 0 -14 -10 -14 -25 0 -29 24 -34
35 -7 6 16 7 16 16 0 6 -10 14 -18 19 -18 18 0 10 40 -10 60 -17 17 -21 18
-26 5z"/>
<path d="M475 155 c-3 -8 -7 -22 -10 -31 -4 -12 -13 -15 -35 -10 -22 4 -30 2
-30 -9 0 -23 66 -20 75 3 6 16 7 16 20 -1 13 -18 14 -18 34 2 27 27 26 31 -4
31 -16 0 -25 6 -25 15 0 8 -5 15 -10 15 -6 0 -13 -7 -15 -15z"/>
<path d="M750 130 c0 -5 5 -10 10 -10 6 0 10 -7 10 -15 0 -11 11 -15 41 -15
28 0 39 4 36 13 -2 6 -14 11 -25 9 -15 -2 -22 2 -22 12 0 10 -9 16 -25 16 -14
0 -25 -4 -25 -10z"/>
<path d="M968 113 c-27 -7 -21 -23 7 -23 14 0 25 4 25 9 0 13 -12 18 -32 14z"/>
</g>
</svg>
